<svg width="18" height="18" viewBox="0 0 18 18" fill="none" xmlns="http://www.w3.org/2000/svg">
<path d="M4.5 0.5H13.5C15.7091 0.5 17.5 2.29086 17.5 4.5V13.5C17.5 15.7091 15.7091 17.5 13.5 17.5H4.5C2.29086 17.5 0.5 15.7091 0.5 13.5V4.5C0.5 2.29086 2.29086 0.5 4.5 0.5Z" stroke="#9C795B" stroke-linecap="round" stroke-linejoin="round"/>
<path d="M12.1391 10.5795C12.4782 9.92608 12.6025 9.18236 12.4946 8.45414C12.3844 7.71133 12.0383 7.02365 11.5073 6.49266C10.9763 5.96167 10.2886 5.61554 9.54581 5.50539C8.81759 5.39741 8.07387 5.52179 7.42042 5.86085C6.76697 6.19991 6.23707 6.73639 5.90609 7.39397C5.57511 8.05155 5.45991 8.79675 5.57686 9.52358C5.69382 10.2504 6.03698 10.9219 6.55754 11.4424C7.0781 11.963 7.74954 12.3061 8.47637 12.4231C9.2032 12.54 9.9484 12.4248 10.606 12.0939C11.2636 11.7629 11.8 11.233 12.1391 10.5795Z" stroke="#9C795B" stroke-linecap="round" stroke-linejoin="round"/>
<circle cx="14" cy="4" r="1" fill="#9C795B"/>
</svg>
