<svg width="20" height="18" viewBox="0 0 20 18" fill="none" xmlns="http://www.w3.org/2000/svg">
<path fill-rule="evenodd" clip-rule="evenodd" d="M4.93926 0.949778C2.85236 1.19689 0.952381 2.67891 0.952381 5.01174C0.952381 6.909 2.24688 8.63153 4.15484 10.5599C4.7018 11.1128 5.29807 11.6811 5.91629 12.2703C7.26805 13.5587 8.7247 14.9471 10 16.492C11.2753 14.9471 12.7319 13.5587 14.0837 12.2703C14.7019 11.6811 15.2982 11.1128 15.8452 10.5599C17.7531 8.63153 19.0476 6.909 19.0476 5.01174C19.0476 2.67891 17.1476 1.19689 15.0607 0.949778C14.0239 0.827008 12.9805 1.01861 12.1515 1.54184C11.332 2.05911 10.6881 2.92114 10.47 4.21148H9.52995C9.31192 2.92114 8.66798 2.05911 7.84846 1.54184C7.01949 1.01861 5.97607 0.827008 4.93926 0.949778ZM10 2.58688C9.61334 1.80729 9.04818 1.2051 8.37178 0.778166C7.32574 0.117925 6.04774 -0.102441 4.82264 0.042625C2.38574 0.331183 0 2.10405 0 5.01174C0 7.30689 1.56264 9.26737 3.46421 11.1893C4.04921 11.7806 4.66853 12.3707 5.29986 12.9723C6.76844 14.3717 8.30197 15.8329 9.61941 17.5143L10 18L10.3806 17.5143C11.698 15.8329 13.2316 14.3717 14.7001 12.9723C15.3315 12.3707 15.9508 11.7806 16.5358 11.1893C18.4374 9.26737 20 7.30689 20 5.01174C20 2.10405 17.6143 0.331183 15.1774 0.042625C13.9523 -0.102441 12.6743 0.117925 11.6282 0.778166C10.9518 1.2051 10.3867 1.80729 10 2.58688Z" fill="#9C795B"/>
</svg>
