<svg width="15" height="14" viewBox="0 0 15 14" fill="none" xmlns="http://www.w3.org/2000/svg">
<path fill-rule="evenodd" clip-rule="evenodd" d="M7.5 1.78297C7.21458 1.29319 6.83364 0.902957 6.38787 0.613414C5.58445 0.0915794 4.60704 -0.0801175 3.67558 0.033382C1.82484 0.258898 0 1.64857 0 3.93317C0 5.72904 1.18805 7.24831 2.58547 8.70174C3.0214 9.15515 3.48011 9.60491 3.94606 10.0618C5.02222 11.1169 6.13697 12.2099 7.09875 13.473L7.5 14L7.90125 13.473C8.86303 12.2099 9.97777 11.1169 11.0539 10.0618C11.5199 9.60491 11.9786 9.15515 12.4145 8.70174C13.812 7.24831 15 5.72904 15 3.93317C15 1.64857 13.1752 0.258898 11.3244 0.033382C10.393 -0.0801175 9.41555 0.0915794 8.61213 0.613414C8.16636 0.902957 7.78542 1.29319 7.5 1.78297Z" fill="#9C795B"/>
</svg>
