<svg width="18" height="18" viewBox="0 0 18 18" fill="none" xmlns="http://www.w3.org/2000/svg">
<path d="M4.5 0.5H13.5C15.7091 0.5 17.5 2.29086 17.5 4.5V13.5C17.5 15.7091 15.7091 17.5 13.5 17.5H4.5C2.29086 17.5 0.5 15.7091 0.5 13.5V4.5C0.5 2.29086 2.29086 0.5 4.5 0.5Z" stroke="#9E9994" stroke-linecap="round" stroke-linejoin="round"/>
<path d="M12.1392 10.5795C12.4782 9.92608 12.6026 9.18236 12.4946 8.45414C12.3845 7.71133 12.0383 7.02365 11.5073 6.49266C10.9764 5.96167 10.2887 5.61554 9.54587 5.50539C8.81765 5.39741 8.07393 5.52179 7.42048 5.86085C6.76703 6.19991 6.23713 6.73639 5.90615 7.39397C5.57517 8.05155 5.45997 8.79675 5.57693 9.52358C5.69388 10.2504 6.03704 10.9219 6.5576 11.4424C7.07816 11.963 7.7496 12.3061 8.47643 12.4231C9.20326 12.54 9.94846 12.4248 10.606 12.0939C11.2636 11.7629 11.8001 11.233 12.1392 10.5795Z" stroke="#9E9994" stroke-linecap="round" stroke-linejoin="round"/>
<circle cx="14" cy="4" r="0.5" stroke="#9E9994"/>
</svg>
