<svg width="103" height="26" viewBox="0 0 103 26" fill="none" xmlns="http://www.w3.org/2000/svg">
<path d="M0 0.297558H8.20633V1.20589H4.63564V11.5734H3.57069V1.20589H0V0.297558Z" fill="#9C795B"/>
<path d="M10.9574 11.5734V0.297558H12.0223V5.13679H18.6939V0.297558H19.7589V11.5734H18.6939V6.04512H12.0223V11.5734H10.9574Z" fill="#9C795B"/>
<path d="M23.5281 11.5734V0.297558H31.0297V1.20589H24.5931V5.27774H30.4033V6.18607H24.5931V10.6651H31.1863V11.5734H23.5281Z" fill="#9C795B"/>
<path d="M40.4051 8.20633C40.4469 8.70748 40.5565 9.13555 40.734 9.49053C40.9219 9.83507 41.1568 10.117 41.4387 10.3362C41.7311 10.5555 42.0652 10.7173 42.441 10.8217C42.8169 10.9157 43.2189 10.9627 43.6469 10.9627C44.1481 10.9627 44.5814 10.9 44.9468 10.7747C45.3122 10.6494 45.6098 10.4824 45.8395 10.2736C46.0691 10.0543 46.2362 9.80375 46.3406 9.52185C46.4555 9.23996 46.5129 8.9424 46.5129 8.62918C46.5129 8.19067 46.4137 7.83569 46.2153 7.56423C46.0169 7.29278 45.7559 7.07353 45.4323 6.90648C45.1191 6.72898 44.7536 6.58804 44.336 6.48363C43.9288 6.37922 43.506 6.28004 43.0675 6.18607C42.6394 6.08167 42.2166 5.9616 41.7989 5.82587C41.3917 5.69014 41.0263 5.50743 40.7027 5.27774C40.3895 5.04804 40.1337 4.75571 39.9353 4.40072C39.7369 4.0353 39.6377 3.57591 39.6377 3.02256C39.6377 2.63626 39.716 2.2604 39.8726 1.89497C40.0397 1.52955 40.2798 1.20589 40.593 0.923996C40.9167 0.642099 41.3187 0.417625 41.7989 0.250575C42.2792 0.0835248 42.8326 0 43.459 0C44.0959 0 44.6492 0.0887451 45.1191 0.266235C45.5993 0.443726 45.9961 0.689081 46.3093 1.0023C46.6225 1.30508 46.8574 1.66006 47.014 2.06724C47.1706 2.47443 47.2489 2.90771 47.2489 3.3671H46.231C46.231 2.93904 46.1527 2.56839 45.9961 2.25518C45.8499 1.94196 45.6463 1.68616 45.3853 1.48779C45.1243 1.28942 44.8267 1.14325 44.4926 1.04928C44.1585 0.955317 43.814 0.908334 43.459 0.908334C42.9161 0.908334 42.4567 0.986639 42.0808 1.14325C41.7154 1.28942 41.4231 1.48257 41.2038 1.7227C40.9846 1.96284 40.8332 2.22907 40.7496 2.52141C40.6661 2.81375 40.6505 3.10609 40.7027 3.39842C40.7653 3.76385 40.9115 4.05618 41.1412 4.27544C41.3709 4.49469 41.6528 4.6774 41.9869 4.82357C42.321 4.9593 42.6864 5.07414 43.0831 5.16811C43.4903 5.25164 43.9027 5.3456 44.3203 5.45001C44.738 5.54397 45.1399 5.65882 45.5262 5.79455C45.923 5.93028 46.2727 6.11299 46.5755 6.34268C46.8783 6.57237 47.1184 6.86993 47.2959 7.23535C47.4839 7.59034 47.5778 8.03928 47.5778 8.5822C47.5778 9.62626 47.2176 10.4354 46.4972 11.0096C45.7768 11.5839 44.7641 11.871 43.459 11.871C42.8743 11.871 42.3314 11.7927 41.8303 11.6361C41.3291 11.4899 40.8958 11.2654 40.5304 10.9627C40.165 10.6494 39.8779 10.2684 39.669 9.81941C39.4707 9.36002 39.3715 8.82233 39.3715 8.20633H40.4051Z" fill="#9C795B"/>
<path d="M50.7935 11.5734V0.297558H58.295V1.20589H51.8584V5.27774H57.6686V6.18607H51.8584V10.6651H58.4517V11.5734H50.7935Z" fill="#9C795B"/>
<path d="M61.6203 11.5734V0.297558H62.6852V10.6651H68.7304V11.5734H61.6203Z" fill="#9C795B"/>
<path d="M71.5754 11.5734V0.297558H79.077V1.20589H72.6403V5.27774H78.4506V6.18607H72.6403V10.6651H79.2336V11.5734H71.5754Z" fill="#9C795B"/>
<path d="M90.405 3.57069C90.1857 2.61016 89.7786 1.9263 89.1834 1.51911C88.5883 1.11193 87.8105 0.908334 86.85 0.908334C86.1713 0.908334 85.5866 1.04406 85.0959 1.31552C84.6052 1.58698 84.198 1.9524 83.8744 2.41178C83.5612 2.87117 83.3262 3.40364 83.1696 4.0092C83.0235 4.60432 82.9504 5.23597 82.9504 5.90417C82.9504 6.53061 83.013 7.14661 83.1383 7.75217C83.274 8.35772 83.4933 8.90063 83.7961 9.3809C84.0989 9.85073 84.506 10.2318 85.0176 10.5242C85.5292 10.8165 86.1713 10.9627 86.9439 10.9627C87.4242 10.9627 87.8627 10.8844 88.2594 10.7277C88.6562 10.5711 89.0007 10.3571 89.2931 10.0856C89.5958 9.80375 89.8464 9.47487 90.0448 9.09901C90.2536 8.72314 90.4102 8.31074 90.5146 7.86179H91.6265C91.5013 8.40471 91.3186 8.92152 91.0784 9.41223C90.8383 9.8925 90.5198 10.3153 90.1231 10.6808C89.7368 11.0462 89.2617 11.3385 88.698 11.5578C88.1446 11.7666 87.4921 11.871 86.7403 11.871C85.8738 11.871 85.1325 11.7144 84.5165 11.4012C83.9005 11.0775 83.3941 10.6442 82.9974 10.1013C82.6111 9.55839 82.3292 8.93196 82.1517 8.22199C81.9742 7.50159 81.8854 6.73943 81.8854 5.9355C81.8854 4.86011 82.016 3.94656 82.277 3.19483C82.5484 2.44311 82.9191 1.83233 83.3889 1.3625C83.8587 0.882233 84.4121 0.537692 85.049 0.328879C85.6858 0.109626 86.3801 0 87.1319 0C87.7061 0 88.2386 0.0783045 88.7293 0.234914C89.2304 0.381082 89.6689 0.605556 90.0448 0.908334C90.4311 1.21111 90.7443 1.58698 90.9845 2.03592C91.235 2.47443 91.4073 2.98602 91.5013 3.57069H90.405Z" fill="#9C795B"/>
<path d="M93.9393 0.297558H102.146V1.20589H98.575V11.5734H97.51V1.20589H93.9393V0.297558Z" fill="#9C795B"/>
<path d="M21.8826 25.8107V18.6351H22.9191L25.2711 24.9635H25.291L27.6031 18.6351H28.6296V25.8107H27.9519V19.4124H27.932L25.58 25.8107H24.9422L22.5802 19.4124H22.5603V25.8107H21.8826Z" fill="#9C795B"/>
<path d="M32.9251 22.2328C32.9251 21.708 32.9948 21.2163 33.1344 20.7579C33.2805 20.2994 33.4931 19.9008 33.7722 19.5619C34.0512 19.2164 34.3967 18.944 34.8087 18.7447C35.2206 18.5454 35.6956 18.4457 36.2338 18.4457C36.7919 18.4457 37.2802 18.5454 37.6988 18.7447C38.124 18.9374 38.4762 19.2065 38.7552 19.552C39.0409 19.8908 39.2535 20.2928 39.393 20.7579C39.5392 21.2163 39.6123 21.708 39.6123 22.2328C39.6123 22.7511 39.5392 23.2394 39.393 23.6978C39.2535 24.1496 39.0442 24.5483 38.7652 24.8938C38.4861 25.2326 38.1373 25.5017 37.7188 25.701C37.3002 25.9003 36.8152 26 36.2637 26C35.7123 26 35.2272 25.9003 34.8087 25.701C34.3901 25.5017 34.0413 25.2326 33.7622 24.8938C33.4832 24.5483 33.2739 24.1496 33.1344 23.6978C32.9948 23.2394 32.9251 22.7511 32.9251 22.2328ZM36.2737 25.422C36.7388 25.422 37.1374 25.3356 37.4696 25.1629C37.8084 24.9835 38.0842 24.7476 38.2968 24.4553C38.516 24.1629 38.6755 23.8241 38.7752 23.4387C38.8815 23.0534 38.9346 22.6514 38.9346 22.2328C38.9346 21.7345 38.8715 21.2894 38.7453 20.8974C38.6257 20.4987 38.4496 20.1599 38.2171 19.8809C37.9845 19.6018 37.7021 19.3892 37.3699 19.243C37.0377 19.0969 36.6657 19.0238 36.2537 19.0238C35.7953 19.0238 35.3967 19.1135 35.0578 19.2929C34.7256 19.4722 34.4499 19.7114 34.2306 20.0104C34.018 20.3027 33.8586 20.6416 33.7523 21.0269C33.6526 21.4123 33.6028 21.8143 33.6028 22.2328C33.6028 22.6581 33.6526 23.0633 33.7523 23.4487C33.8586 23.8341 34.018 24.1729 34.2306 24.4652C34.4499 24.7576 34.7256 24.9901 35.0578 25.1629C35.3967 25.3356 35.8019 25.422 36.2737 25.422Z" fill="#9C795B"/>
<path d="M44.2298 23.668C44.2564 23.9869 44.3261 24.2593 44.4391 24.4852C44.5587 24.7044 44.7081 24.8838 44.8875 25.0233C45.0736 25.1629 45.2862 25.2658 45.5254 25.3323C45.7645 25.3921 46.0203 25.422 46.2928 25.422C46.6117 25.422 46.8874 25.3821 47.1199 25.3024C47.3525 25.2227 47.5418 25.1164 47.688 24.9835C47.8342 24.8439 47.9405 24.6845 48.0069 24.5051C48.08 24.3257 48.1165 24.1364 48.1165 23.937C48.1165 23.658 48.0534 23.4321 47.9272 23.2593C47.8009 23.0866 47.6348 22.9471 47.4289 22.8408C47.2296 22.7278 46.997 22.6381 46.7313 22.5717C46.4721 22.5052 46.2031 22.4421 45.924 22.3823C45.6516 22.3159 45.3825 22.2395 45.1168 22.1531C44.8576 22.0667 44.6251 21.9505 44.4191 21.8043C44.2198 21.6581 44.057 21.4721 43.9308 21.2462C43.8046 21.0137 43.7414 20.7213 43.7414 20.3692C43.7414 20.1234 43.7913 19.8842 43.8909 19.6516C43.9972 19.4191 44.15 19.2131 44.3494 19.0337C44.5553 18.8543 44.8111 18.7115 45.1168 18.6052C45.4224 18.4989 45.7745 18.4457 46.1732 18.4457C46.5784 18.4457 46.9306 18.5022 47.2296 18.6152C47.5352 18.7281 47.7877 18.8842 47.987 19.0836C48.1863 19.2762 48.3358 19.5021 48.4355 19.7613C48.5351 20.0204 48.5849 20.2961 48.5849 20.5884H47.9371C47.9371 20.316 47.8873 20.0802 47.7877 19.8809C47.6946 19.6815 47.5651 19.5188 47.399 19.3925C47.2329 19.2663 47.0435 19.1733 46.8309 19.1135C46.6183 19.0537 46.3991 19.0238 46.1732 19.0238C45.8277 19.0238 45.5353 19.0736 45.2961 19.1733C45.0636 19.2663 44.8776 19.3892 44.738 19.542C44.5985 19.6948 44.5022 19.8642 44.449 20.0503C44.3959 20.2363 44.3859 20.4223 44.4191 20.6084C44.459 20.8409 44.552 21.0269 44.6982 21.1665C44.8443 21.306 45.0237 21.4223 45.2363 21.5153C45.449 21.6017 45.6815 21.6747 45.934 21.7345C46.1931 21.7877 46.4555 21.8475 46.7213 21.9139C46.9871 21.9737 47.2428 22.0468 47.4887 22.1332C47.7411 22.2196 47.9637 22.3358 48.1564 22.482C48.3491 22.6282 48.5019 22.8175 48.6148 23.0501C48.7344 23.276 48.7942 23.5616 48.7942 23.9071C48.7942 24.5715 48.565 25.0865 48.1066 25.4519C47.6481 25.8173 47.0037 26 46.1732 26C45.8011 26 45.4556 25.9502 45.1367 25.8505C44.8178 25.7575 44.542 25.6147 44.3095 25.422C44.077 25.2227 43.8943 24.9801 43.7614 24.6945C43.6351 24.4021 43.572 24.0599 43.572 23.668H44.2298Z" fill="#9C795B"/>
<path d="M58.1257 20.718C57.9862 20.1067 57.7271 19.6716 57.3484 19.4124C56.9697 19.1533 56.4747 19.0238 55.8634 19.0238C55.4316 19.0238 55.0595 19.1101 54.7472 19.2829C54.435 19.4556 54.1758 19.6882 53.9699 19.9805C53.7706 20.2728 53.6211 20.6117 53.5214 20.997C53.4284 21.3758 53.3819 21.7777 53.3819 22.2029C53.3819 22.6016 53.4217 22.9936 53.5015 23.3789C53.5878 23.7643 53.7274 24.1098 53.9201 24.4154C54.1127 24.7144 54.3718 24.9569 54.6974 25.1429C55.023 25.329 55.4316 25.422 55.9232 25.422C56.2289 25.422 56.5079 25.3721 56.7604 25.2725C57.0128 25.1728 57.2321 25.0366 57.4181 24.8639C57.6108 24.6845 57.7703 24.4752 57.8965 24.236C58.0294 23.9968 58.129 23.7344 58.1955 23.4487H58.9031C58.8233 23.7942 58.7071 24.1231 58.5543 24.4353C58.4015 24.741 58.1988 25.01 57.9463 25.2426C57.7005 25.4751 57.3982 25.6612 57.0394 25.8007C56.6873 25.9336 56.272 26 55.7937 26C55.2422 26 54.7705 25.9003 54.3785 25.701C53.9865 25.4951 53.6643 25.2193 53.4118 24.8738C53.166 24.5284 52.9866 24.1297 52.8736 23.6779C52.7607 23.2195 52.7042 22.7345 52.7042 22.2229C52.7042 21.5385 52.7872 20.9572 52.9533 20.4788C53.1261 20.0004 53.3619 19.6118 53.6609 19.3128C53.9599 19.0072 54.312 18.7879 54.7173 18.655C55.1226 18.5155 55.5644 18.4457 56.0428 18.4457C56.4082 18.4457 56.7471 18.4956 57.0594 18.5952C57.3783 18.6882 57.6573 18.8311 57.8965 19.0238C58.1423 19.2164 58.3417 19.4556 58.4945 19.7413C58.6539 20.0204 58.7636 20.3459 58.8233 20.718H58.1257Z" fill="#9C795B"/>
<path d="M62.9361 22.2328C62.9361 21.708 63.0059 21.2163 63.1454 20.7579C63.2916 20.2994 63.5042 19.9008 63.7832 19.5619C64.0623 19.2164 64.4078 18.944 64.8197 18.7447C65.2317 18.5454 65.7067 18.4457 66.2449 18.4457C66.803 18.4457 67.2913 18.5454 67.7099 18.7447C68.1351 18.9374 68.4872 19.2065 68.7663 19.552C69.052 19.8908 69.2646 20.2928 69.4041 20.7579C69.5503 21.2163 69.6234 21.708 69.6234 22.2328C69.6234 22.7511 69.5503 23.2394 69.4041 23.6978C69.2646 24.1496 69.0553 24.5483 68.7762 24.8938C68.4972 25.2326 68.1484 25.5017 67.7298 25.701C67.3112 25.9003 66.8262 26 66.2748 26C65.7233 26 65.2383 25.9003 64.8197 25.701C64.4011 25.5017 64.0523 25.2326 63.7733 24.8938C63.4942 24.5483 63.2849 24.1496 63.1454 23.6978C63.0059 23.2394 62.9361 22.7511 62.9361 22.2328ZM66.2847 25.422C66.7498 25.422 67.1485 25.3356 67.4807 25.1629C67.8195 24.9835 68.0952 24.7476 68.3078 24.4553C68.5271 24.1629 68.6865 23.8241 68.7862 23.4387C68.8925 23.0534 68.9457 22.6514 68.9457 22.2328C68.9457 21.7345 68.8825 21.2894 68.7563 20.8974C68.6367 20.4987 68.4606 20.1599 68.2281 19.8809C67.9956 19.6018 67.7132 19.3892 67.381 19.243C67.0488 19.0969 66.6767 19.0238 66.2648 19.0238C65.8064 19.0238 65.4077 19.1135 65.0689 19.2929C64.7367 19.4722 64.4609 19.7114 64.2417 20.0104C64.0291 20.3027 63.8696 20.6416 63.7633 21.0269C63.6637 21.4123 63.6138 21.8143 63.6138 22.2328C63.6138 22.6581 63.6637 23.0633 63.7633 23.4487C63.8696 23.8341 64.0291 24.1729 64.2417 24.4652C64.4609 24.7576 64.7367 24.9901 65.0689 25.1629C65.4077 25.3356 65.813 25.422 66.2847 25.422Z" fill="#9C795B"/>
<path d="M79.5926 24.8539H79.6125L81.1772 18.6351H81.8748L79.9912 25.8107H79.2438L77.5795 19.4722H77.5595L75.8952 25.8107H75.1477L73.2941 18.6351H73.9717L75.5165 24.8539H75.5364L77.2007 18.6351H77.9582L79.5926 24.8539Z" fill="#9C795B"/>
</svg>
