<svg width="145" height="43" viewBox="0 0 145 43" fill="none" xmlns="http://www.w3.org/2000/svg">
<path d="M0.352 4.16H11.88V5.436H6.864V20H5.368V5.436H0.352V4.16ZM15.7446 20V4.16H17.2406V10.958H26.6126V4.16H28.1086V20H26.6126V12.234H17.2406V20H15.7446ZM33.4036 20V4.16H43.9416V5.436H34.8996V11.156H43.0616V12.432H34.8996V18.724H44.1616V20H33.4036ZM57.1118 15.27C57.1705 15.974 57.3245 16.5753 57.5738 17.074C57.8378 17.558 58.1678 17.954 58.5638 18.262C58.9745 18.57 59.4438 18.7973 59.9718 18.944C60.4998 19.076 61.0645 19.142 61.6658 19.142C62.3698 19.142 62.9785 19.054 63.4918 18.878C64.0052 18.702 64.4232 18.4673 64.7458 18.174C65.0685 17.866 65.3032 17.514 65.4498 17.118C65.6112 16.722 65.6918 16.304 65.6918 15.864C65.6918 15.248 65.5525 14.7493 65.2738 14.368C64.9952 13.9867 64.6285 13.6787 64.1738 13.444C63.7338 13.1947 63.2205 12.9967 62.6338 12.85C62.0618 12.7033 61.4678 12.564 60.8518 12.432C60.2505 12.2853 59.6565 12.1167 59.0698 11.926C58.4978 11.7353 57.9845 11.4787 57.5298 11.156C57.0898 10.8333 56.7305 10.4227 56.4518 9.924C56.1732 9.41067 56.0338 8.76533 56.0338 7.988C56.0338 7.44533 56.1438 6.91733 56.3638 6.404C56.5985 5.89067 56.9358 5.436 57.3758 5.04C57.8305 4.644 58.3952 4.32867 59.0698 4.094C59.7445 3.85933 60.5218 3.742 61.4018 3.742C62.2965 3.742 63.0738 3.86667 63.7338 4.116C64.4085 4.36533 64.9658 4.71 65.4058 5.15C65.8458 5.57533 66.1758 6.074 66.3958 6.646C66.6158 7.218 66.7258 7.82667 66.7258 8.472H65.2958C65.2958 7.87067 65.1858 7.35 64.9658 6.91C64.7605 6.47 64.4745 6.11067 64.1078 5.832C63.7412 5.55333 63.3232 5.348 62.8538 5.216C62.3845 5.084 61.9005 5.018 61.4018 5.018C60.6392 5.018 59.9938 5.128 59.4658 5.348C58.9525 5.55333 58.5418 5.82467 58.2338 6.162C57.9258 6.49933 57.7132 6.87333 57.5958 7.284C57.4785 7.69467 57.4565 8.10533 57.5298 8.516C57.6178 9.02933 57.8232 9.44 58.1458 9.748C58.4685 10.056 58.8645 10.3127 59.3338 10.518C59.8032 10.7087 60.3165 10.87 60.8738 11.002C61.4458 11.1193 62.0252 11.2513 62.6118 11.398C63.1985 11.53 63.7632 11.6913 64.3058 11.882C64.8632 12.0727 65.3545 12.3293 65.7798 12.652C66.2052 12.9747 66.5425 13.3927 66.7918 13.906C67.0558 14.4047 67.1878 15.0353 67.1878 15.798C67.1878 17.2647 66.6818 18.4013 65.6698 19.208C64.6578 20.0147 63.2352 20.418 61.4018 20.418C60.5805 20.418 59.8178 20.308 59.1138 20.088C58.4098 19.8827 57.8012 19.5673 57.2878 19.142C56.7745 18.702 56.3712 18.1667 56.0778 17.536C55.7992 16.8907 55.6598 16.1353 55.6598 15.27H57.1118ZM71.705 20V4.16H82.243V5.436H73.2011V11.156H81.3631V12.432H73.2011V18.724H82.4631V20H71.705ZM86.9143 20V4.16H88.4103V18.724H96.9023V20H86.9143ZM100.899 20V4.16H111.437V5.436H102.395V11.156H110.557V12.432H102.395V18.724H111.657V20H100.899ZM127.35 8.758C127.042 7.40867 126.47 6.448 125.634 5.876C124.798 5.304 123.705 5.018 122.356 5.018C121.403 5.018 120.581 5.20867 119.892 5.59C119.203 5.97133 118.631 6.48467 118.176 7.13C117.736 7.77533 117.406 8.52333 117.186 9.374C116.981 10.21 116.878 11.0973 116.878 12.036C116.878 12.916 116.966 13.7813 117.142 14.632C117.333 15.4827 117.641 16.2453 118.066 16.92C118.491 17.58 119.063 18.1153 119.782 18.526C120.501 18.9367 121.403 19.142 122.488 19.142C123.163 19.142 123.779 19.032 124.336 18.812C124.893 18.592 125.377 18.2913 125.788 17.91C126.213 17.514 126.565 17.052 126.844 16.524C127.137 15.996 127.357 15.4167 127.504 14.786H129.066C128.89 15.5487 128.633 16.2747 128.296 16.964C127.959 17.6387 127.511 18.2327 126.954 18.746C126.411 19.2593 125.744 19.67 124.952 19.978C124.175 20.2713 123.258 20.418 122.202 20.418C120.985 20.418 119.943 20.198 119.078 19.758C118.213 19.3033 117.501 18.6947 116.944 17.932C116.401 17.1693 116.005 16.2893 115.756 15.292C115.507 14.28 115.382 13.2093 115.382 12.08C115.382 10.5693 115.565 9.286 115.932 8.23C116.313 7.174 116.834 6.316 117.494 5.656C118.154 4.98133 118.931 4.49733 119.826 4.204C120.721 3.896 121.696 3.742 122.752 3.742C123.559 3.742 124.307 3.852 124.996 4.072C125.7 4.27733 126.316 4.59267 126.844 5.018C127.387 5.44333 127.827 5.97133 128.164 6.602C128.516 7.218 128.758 7.93667 128.89 8.758H127.35ZM132.315 4.16H143.843V5.436H138.827V20H137.331V5.436H132.315V4.16Z" fill="#9C795B"/>
<path d="M31.092 40V29.92H32.548L35.852 38.81H35.88L39.128 29.92H40.57V40H39.618V31.012H39.59L36.286 40H35.39L32.072 31.012H32.044V40H31.092ZM46.6041 34.974C46.6041 34.2367 46.7021 33.546 46.8981 32.902C47.1034 32.258 47.4021 31.698 47.7941 31.222C48.1861 30.7367 48.6714 30.354 49.2501 30.074C49.8288 29.794 50.4961 29.654 51.2521 29.654C52.0361 29.654 52.7221 29.794 53.3101 30.074C53.9074 30.3447 54.4021 30.7227 54.7941 31.208C55.1954 31.684 55.4941 32.2487 55.6901 32.902C55.8954 33.546 55.9981 34.2367 55.9981 34.974C55.9981 35.702 55.8954 36.388 55.6901 37.032C55.4941 37.6667 55.2001 38.2267 54.8081 38.712C54.4161 39.188 53.9261 39.566 53.3381 39.846C52.7501 40.126 52.0688 40.266 51.2941 40.266C50.5194 40.266 49.8381 40.126 49.2501 39.846C48.6621 39.566 48.1721 39.188 47.7801 38.712C47.3881 38.2267 47.0941 37.6667 46.8981 37.032C46.7021 36.388 46.6041 35.702 46.6041 34.974ZM51.3081 39.454C51.9614 39.454 52.5214 39.3327 52.9881 39.09C53.4641 38.838 53.8514 38.5067 54.1501 38.096C54.4581 37.6853 54.6821 37.2093 54.8221 36.668C54.9714 36.1267 55.0461 35.562 55.0461 34.974C55.0461 34.274 54.9574 33.6487 54.7801 33.098C54.6121 32.538 54.3648 32.062 54.0381 31.67C53.7114 31.278 53.3148 30.9793 52.8481 30.774C52.3814 30.5687 51.8588 30.466 51.2801 30.466C50.6361 30.466 50.0761 30.592 49.6001 30.844C49.1334 31.096 48.7461 31.432 48.4381 31.852C48.1394 32.2627 47.9154 32.7387 47.7661 33.28C47.6261 33.8213 47.5561 34.386 47.5561 34.974C47.5561 35.5713 47.6261 36.1407 47.7661 36.682C47.9154 37.2233 48.1394 37.6993 48.4381 38.11C48.7461 38.5207 49.1334 38.8473 49.6001 39.09C50.0761 39.3327 50.6454 39.454 51.3081 39.454ZM62.4846 36.99C62.5219 37.438 62.6199 37.8207 62.7786 38.138C62.9466 38.446 63.1566 38.698 63.4086 38.894C63.6699 39.09 63.9686 39.2347 64.3046 39.328C64.6406 39.412 64.9999 39.454 65.3826 39.454C65.8306 39.454 66.2179 39.398 66.5446 39.286C66.8713 39.174 67.1373 39.0247 67.3426 38.838C67.5479 38.642 67.6973 38.418 67.7906 38.166C67.8933 37.914 67.9446 37.648 67.9446 37.368C67.9446 36.976 67.8559 36.6587 67.6786 36.416C67.5013 36.1733 67.2679 35.9773 66.9786 35.828C66.6986 35.6693 66.3719 35.5433 65.9986 35.45C65.6346 35.3567 65.2566 35.268 64.8646 35.184C64.4819 35.0907 64.1039 34.9833 63.7306 34.862C63.3666 34.7407 63.0399 34.5773 62.7506 34.372C62.4706 34.1667 62.2419 33.9053 62.0646 33.588C61.8873 33.2613 61.7986 32.8507 61.7986 32.356C61.7986 32.0107 61.8686 31.6747 62.0086 31.348C62.1579 31.0213 62.3726 30.732 62.6526 30.48C62.9419 30.228 63.3013 30.0273 63.7306 29.878C64.1599 29.7287 64.6546 29.654 65.2146 29.654C65.7839 29.654 66.2786 29.7333 66.6986 29.892C67.1279 30.0507 67.4826 30.27 67.7626 30.55C68.0426 30.8207 68.2526 31.138 68.3926 31.502C68.5326 31.866 68.6026 32.2533 68.6026 32.664H67.6926C67.6926 32.2813 67.6226 31.95 67.4826 31.67C67.3519 31.39 67.1699 31.1613 66.9366 30.984C66.7033 30.8067 66.4373 30.676 66.1386 30.592C65.8399 30.508 65.5319 30.466 65.2146 30.466C64.7293 30.466 64.3186 30.536 63.9826 30.676C63.6559 30.8067 63.3946 30.9793 63.1986 31.194C63.0026 31.4087 62.8673 31.6467 62.7926 31.908C62.7179 32.1693 62.7039 32.4307 62.7506 32.692C62.8066 33.0187 62.9373 33.28 63.1426 33.476C63.3479 33.672 63.5999 33.8353 63.8986 33.966C64.1973 34.0873 64.5239 34.19 64.8786 34.274C65.2426 34.3487 65.6113 34.4327 65.9846 34.526C66.3579 34.61 66.7173 34.7127 67.0626 34.834C67.4173 34.9553 67.7299 35.1187 68.0006 35.324C68.2713 35.5293 68.4859 35.7953 68.6446 36.122C68.8126 36.4393 68.8966 36.8407 68.8966 37.326C68.8966 38.2593 68.5746 38.9827 67.9306 39.496C67.2866 40.0093 66.3813 40.266 65.2146 40.266C64.6919 40.266 64.2066 40.196 63.7586 40.056C63.3106 39.9253 62.9233 39.7247 62.5966 39.454C62.2699 39.174 62.0133 38.8333 61.8266 38.432C61.6493 38.0213 61.5606 37.5407 61.5606 36.99H62.4846ZM82.0052 32.846C81.8092 31.9873 81.4452 31.376 80.9132 31.012C80.3812 30.648 79.6859 30.466 78.8272 30.466C78.2205 30.466 77.6979 30.5873 77.2592 30.83C76.8205 31.0727 76.4565 31.3993 76.1672 31.81C75.8872 32.2207 75.6772 32.6967 75.5372 33.238C75.4065 33.77 75.3412 34.3347 75.3412 34.932C75.3412 35.492 75.3972 36.0427 75.5092 36.584C75.6305 37.1253 75.8265 37.6107 76.0972 38.04C76.3679 38.46 76.7319 38.8007 77.1892 39.062C77.6465 39.3233 78.2205 39.454 78.9112 39.454C79.3405 39.454 79.7325 39.384 80.0872 39.244C80.4419 39.104 80.7499 38.9127 81.0112 38.67C81.2819 38.418 81.5059 38.124 81.6832 37.788C81.8699 37.452 82.0099 37.0833 82.1032 36.682H83.0972C82.9852 37.1673 82.8219 37.6293 82.6072 38.068C82.3925 38.4973 82.1079 38.8753 81.7532 39.202C81.4079 39.5287 80.9832 39.79 80.4792 39.986C79.9845 40.1727 79.4012 40.266 78.7292 40.266C77.9545 40.266 77.2919 40.126 76.7412 39.846C76.1905 39.5567 75.7379 39.1693 75.3832 38.684C75.0379 38.1987 74.7859 37.6387 74.6272 37.004C74.4685 36.36 74.3892 35.6787 74.3892 34.96C74.3892 33.9987 74.5059 33.182 74.7392 32.51C74.9819 31.838 75.3132 31.292 75.7332 30.872C76.1532 30.4427 76.6479 30.1347 77.2172 29.948C77.7865 29.752 78.4072 29.654 79.0792 29.654C79.5925 29.654 80.0685 29.724 80.5072 29.864C80.9552 29.9947 81.3472 30.1953 81.6832 30.466C82.0285 30.7367 82.3085 31.0727 82.5232 31.474C82.7472 31.866 82.9012 32.3233 82.9852 32.846H82.0052ZM88.7627 34.974C88.7627 34.2367 88.8607 33.546 89.0567 32.902C89.262 32.258 89.5607 31.698 89.9527 31.222C90.3447 30.7367 90.83 30.354 91.4087 30.074C91.9874 29.794 92.6547 29.654 93.4107 29.654C94.1947 29.654 94.8807 29.794 95.4687 30.074C96.066 30.3447 96.5607 30.7227 96.9527 31.208C97.354 31.684 97.6527 32.2487 97.8487 32.902C98.054 33.546 98.1567 34.2367 98.1567 34.974C98.1567 35.702 98.054 36.388 97.8487 37.032C97.6527 37.6667 97.3587 38.2267 96.9667 38.712C96.5747 39.188 96.0847 39.566 95.4967 39.846C94.9087 40.126 94.2274 40.266 93.4527 40.266C92.678 40.266 91.9967 40.126 91.4087 39.846C90.8207 39.566 90.3307 39.188 89.9387 38.712C89.5467 38.2267 89.2527 37.6667 89.0567 37.032C88.8607 36.388 88.7627 35.702 88.7627 34.974ZM93.4667 39.454C94.12 39.454 94.68 39.3327 95.1467 39.09C95.6227 38.838 96.01 38.5067 96.3087 38.096C96.6167 37.6853 96.8407 37.2093 96.9807 36.668C97.13 36.1267 97.2047 35.562 97.2047 34.974C97.2047 34.274 97.116 33.6487 96.9387 33.098C96.7707 32.538 96.5234 32.062 96.1967 31.67C95.87 31.278 95.4734 30.9793 95.0067 30.774C94.54 30.5687 94.0174 30.466 93.4387 30.466C92.7947 30.466 92.2347 30.592 91.7587 30.844C91.292 31.096 90.9047 31.432 90.5967 31.852C90.298 32.2627 90.074 32.7387 89.9247 33.28C89.7847 33.8213 89.7147 34.386 89.7147 34.974C89.7147 35.5713 89.7847 36.1407 89.9247 36.682C90.074 37.2233 90.298 37.6993 90.5967 38.11C90.9047 38.5207 91.292 38.8473 91.7587 39.09C92.2347 39.3327 92.804 39.454 93.4667 39.454ZM112.161 38.656H112.189L114.387 29.92H115.367L112.721 40H111.671L109.333 31.096H109.305L106.967 40H105.917L103.313 29.92H104.265L106.435 38.656H106.463L108.801 29.92H109.865L112.161 38.656Z" fill="#9C795B"/>
</svg>
