<svg width="20" height="20" viewBox="0 0 20 20" fill="none" xmlns="http://www.w3.org/2000/svg">
<path fill-rule="evenodd" clip-rule="evenodd" d="M9 0C13.9706 0 18 4.02944 18 9C18 11.2185 17.1973 13.2496 15.8665 14.8185L20 19L19 20L14.8624 15.829C13.2875 17.1822 11.2392 18 9 18C4.02944 18 0 13.9706 0 9C0 4.02944 4.02944 0 9 0ZM1 9C1 13.4183 4.58172 17 9 17C11.2165 17 13.2208 16.0999 14.6707 14.6429C16.1114 13.1952 17 11.2024 17 9C17 4.58172 13.4183 1 9 1C4.58172 1 1 4.58172 1 9Z" fill="#9E9994"/>
</svg>
