<svg width="15" height="14" viewBox="0 0 15 14" fill="none" xmlns="http://www.w3.org/2000/svg">
<path fill-rule="evenodd" clip-rule="evenodd" d="M3.79942 1.0023C2.32516 1.18194 1 2.25411 1 3.93317C1 5.30825 1.91195 6.57463 3.31453 8.03343C3.71082 8.44561 4.14552 8.87198 4.59781 9.3156C5.5521 10.2516 6.5847 11.2644 7.5 12.3827C8.4153 11.2644 9.44789 10.2516 10.4022 9.3156C10.8545 8.87198 11.2892 8.44561 11.6855 8.03343C13.088 6.57463 14 5.30825 14 3.93317C14 2.25411 12.6748 1.18194 11.2006 1.0023C10.4695 0.913217 9.7407 1.05311 9.16599 1.4264C8.60082 1.79349 8.14814 2.40924 7.99369 3.34985H7.00631C6.85186 2.40924 6.39918 1.79349 5.83401 1.4264C5.2593 1.05311 4.53046 0.913217 3.79942 1.0023ZM7.5 1.78297C7.21458 1.29319 6.83364 0.902957 6.38787 0.613414C5.58445 0.0915794 4.60704 -0.0801175 3.67558 0.033382C1.82484 0.258898 0 1.64857 0 3.93317C0 5.72904 1.18805 7.24831 2.58547 8.70174C3.0214 9.15515 3.48011 9.60491 3.94606 10.0618C5.02222 11.1169 6.13697 12.2099 7.09875 13.473L7.5 14L7.90125 13.473C8.86303 12.2099 9.97777 11.1169 11.0539 10.0618C11.5199 9.60491 11.9786 9.15515 12.4145 8.70174C13.812 7.24831 15 5.72904 15 3.93317C15 1.64857 13.1752 0.258898 11.3244 0.033382C10.393 -0.0801175 9.41555 0.0915794 8.61213 0.613414C8.16636 0.902957 7.78542 1.29319 7.5 1.78297Z" fill="#9C795B"/>
</svg>
